<?xml version="1.0" encoding="UTF-8" standalone="no"?>
<svg
   viewBox="0 0 300 150"
   width="300"
   height="150"
   version="1.1"
   id="svg19"
   sodipodi:docname="principle-best-practices.svg"
   inkscape:version="1.4 (e7c3feb100, 2024-10-09)"
   xmlns:inkscape="http://www.inkscape.org/namespaces/inkscape"
   xmlns:sodipodi="http://sodipodi.sourceforge.net/DTD/sodipodi-0.dtd"
   xmlns="http://www.w3.org/2000/svg"
   xmlns:svg="http://www.w3.org/2000/svg">
  <defs
     id="defs19" />
  <sodipodi:namedview
     id="namedview19"
     pagecolor="#ffffff"
     bordercolor="#666666"
     borderopacity="1.0"
     inkscape:showpageshadow="2"
     inkscape:pageopacity="0.0"
     inkscape:pagecheckerboard="0"
     inkscape:deskcolor="#d1d1d1"
     inkscape:zoom="1.4318912"
     inkscape:cx="127.45381"
     inkscape:cy="-77.170666"
     inkscape:window-width="1920"
     inkscape:window-height="1138"
     inkscape:window-x="1920"
     inkscape:window-y="25"
     inkscape:window-maximized="1"
     inkscape:current-layer="svg19" />
  <rect
     width="300"
     height="150"
     fill="#ede5fa"
     id="rect1"
     x="0"
     y="0"
     style="stroke-width:0.825723" />
  <polygon
     points="150,108 114,88 114,48 150,28 186,48 186,88 "
     fill="#4c1d95"
     id="polygon1"
     transform="translate(0,-20)" />
  <polyline
     points="135,68 147,80 168,56"
     fill="none"
     stroke="#22d3ee"
     stroke-width="3"
     stroke-linecap="round"
     stroke-linejoin="round"
     id="polyline3"
     transform="translate(0,-20)" />
  <line
     x1="150"
     y1="88"
     x2="150"
     y2="118"
     stroke="#6b3dab"
     stroke-width="1.5"
     id="line4" />
  <line
     x1="114"
     y1="68"
     x2="78"
     y2="100"
     stroke="#6b3dab"
     stroke-width="1.5"
     id="line5" />
  <line
     x1="186"
     y1="68"
     x2="222"
     y2="100"
     stroke="#6b3dab"
     stroke-width="1.5"
     id="line6" />
  <g
     id="g19"
     transform="translate(-25.839952,-4.8886395)">
    <rect
       x="34"
       y="98"
       width="78"
       height="40"
       rx="6"
       fill="#b799eb"
       id="rect6" />
    <rect
       x="44"
       y="108"
       width="38"
       height="7"
       rx="2"
       fill="#4c1d95"
       opacity="0.5"
       id="rect7" />
    <rect
       x="44"
       y="119"
       width="52"
       height="7"
       rx="2"
       fill="#4c1d95"
       opacity="0.35"
       id="rect8" />
  </g>
  <g
     id="g20"
     transform="translate(0.69837704,-13.967542)">
    <rect
       x="111"
       y="118"
       width="78"
       height="40"
       rx="6"
       fill="#b799eb"
       id="rect9" />
    <rect
       x="121"
       y="128"
       width="44"
       height="7"
       rx="2"
       fill="#4c1d95"
       opacity="0.5"
       id="rect10" />
    <rect
       x="121"
       y="139"
       width="32"
       height="7"
       rx="2"
       fill="#4c1d95"
       opacity="0.35"
       id="rect11" />
  </g>
  <g
     id="g21"
     transform="translate(23.395632,-4.1902624)">
    <rect
       x="190"
       y="98"
       width="78"
       height="40"
       rx="6"
       fill="#b799eb"
       id="rect12" />
    <rect
       x="200"
       y="108"
       width="48"
       height="7"
       rx="2"
       fill="#4c1d95"
       opacity="0.5"
       id="rect13" />
    <rect
       x="200"
       y="119"
       width="36"
       height="7"
       rx="2"
       fill="#4c1d95"
       opacity="0.35"
       id="rect14" />
  </g>
</svg>
