<?xml version="1.0" encoding="UTF-8" standalone="no"?>
<!DOCTYPE svg PUBLIC "-//W3C//DTD SVG 1.1//EN" "http://www.w3.org/Graphics/SVG/1.1/DTD/svg11.dtd">
<svg width="100%" height="100%" viewBox="0 0 605 730" version="1.1" xmlns="http://www.w3.org/2000/svg" xmlns:xlink="http://www.w3.org/1999/xlink" xml:space="preserve" xmlns:serif="http://www.serif.com/" style="fill-rule:evenodd;clip-rule:evenodd;stroke-linejoin:round;stroke-miterlimit:2;">
    <g transform="matrix(1,0,0,1,-3769,-1772)">
        <g id="logo-vertical-alt-color-dark" transform="matrix(1.409017,0,0,1.178905,-4367.741501,1757.560416)">
            <rect x="5774.763" y="12.767" width="428.74" height="618.15" style="fill:none;"/>
            <clipPath id="_clip1">
                <rect x="5774.763" y="12.767" width="428.74" height="618.15"/>
            </clipPath>
            <g clip-path="url(#_clip1)">
                <g transform="matrix(5.020147,0,0,6.000038,5768.870584,608.541444)">
                    <path d="M1.174,0L1.174,-11.185L4.363,-11.185L7.677,-3.3L7.733,-3.3L11.033,-11.185L14.209,-11.185L14.209,0L11.875,0L11.875,-7.898L11.82,-7.898L8.616,0L6.614,0L3.424,-7.898L3.369,-7.898L3.369,0L1.174,0ZM20.258,0.166C19.356,0.166 18.572,-0.012 17.904,-0.366C17.237,-0.72 16.719,-1.22 16.351,-1.864C15.983,-2.509 15.798,-3.273 15.798,-4.156C15.798,-5.031 15.98,-5.79 16.344,-6.435C16.707,-7.079 17.225,-7.576 17.897,-7.926C18.569,-8.276 19.361,-8.451 20.272,-8.451C21.174,-8.451 21.957,-8.276 22.62,-7.926C23.283,-7.576 23.793,-7.079 24.152,-6.435C24.511,-5.79 24.691,-5.026 24.691,-4.142C24.691,-3.268 24.511,-2.506 24.152,-1.857C23.793,-1.208 23.28,-0.709 22.613,-0.359C21.945,-0.009 21.161,0.166 20.258,0.166ZM20.258,-1.823C20.949,-1.823 21.478,-2.032 21.846,-2.451C22.215,-2.87 22.399,-3.438 22.399,-4.156C22.399,-4.874 22.215,-5.438 21.846,-5.848C21.478,-6.257 20.949,-6.462 20.258,-6.462C19.559,-6.462 19.023,-6.257 18.65,-5.848C18.277,-5.438 18.091,-4.874 18.091,-4.156C18.091,-3.438 18.277,-2.87 18.65,-2.451C19.023,-2.032 19.559,-1.823 20.258,-1.823ZM30.023,0.166C29.12,0.166 28.336,-0.012 27.668,-0.366C27.001,-0.72 26.483,-1.22 26.115,-1.864C25.747,-2.509 25.563,-3.273 25.563,-4.156C25.563,-5.031 25.744,-5.79 26.108,-6.435C26.472,-7.079 26.989,-7.576 27.661,-7.926C28.333,-8.276 29.125,-8.451 30.036,-8.451C30.939,-8.451 31.721,-8.276 32.384,-7.926C33.047,-7.576 33.558,-7.079 33.917,-6.435C34.276,-5.79 34.455,-5.026 34.455,-4.142C34.455,-3.268 34.276,-2.506 33.917,-1.857C33.558,-1.208 33.044,-0.709 32.377,-0.359C31.71,-0.009 30.925,0.166 30.023,0.166ZM30.023,-1.823C30.713,-1.823 31.242,-2.032 31.611,-2.451C31.979,-2.87 32.163,-3.438 32.163,-4.156C32.163,-4.874 31.979,-5.438 31.611,-5.848C31.242,-6.257 30.713,-6.462 30.023,-6.462C29.323,-6.462 28.787,-6.257 28.414,-5.848C28.041,-5.438 27.855,-4.874 27.855,-4.156C27.855,-3.438 28.041,-2.87 28.414,-2.451C28.787,-2.032 29.323,-1.823 30.023,-1.823ZM36.376,0L36.376,-6.02L35.244,-6.02L35.244,-8.285L37.564,-8.285L37.564,-6.932L38.144,-6.932C38.466,-7.41 38.871,-7.781 39.359,-8.043C39.847,-8.306 40.454,-8.437 41.181,-8.437C42.332,-8.437 43.223,-8.122 43.853,-7.491C44.484,-6.86 44.799,-6.016 44.799,-4.957L44.799,0L42.507,0L42.507,-4.529C42.507,-5.137 42.344,-5.599 42.017,-5.917C41.69,-6.234 41.214,-6.393 40.588,-6.393C39.962,-6.393 39.485,-6.234 39.159,-5.917C38.832,-5.599 38.668,-5.137 38.668,-4.529L38.668,0L36.376,0ZM47.535,0L47.535,-7.092L45.85,-7.092L45.85,-8.285L47.552,-8.285L47.552,-10.207C47.552,-10.675 47.681,-11.024 47.94,-11.254C48.198,-11.484 48.551,-11.599 48.999,-11.599L51.291,-11.599L51.291,-10.406L49.065,-10.406L49.065,-8.285L51.125,-8.285L51.125,-7.092L49.081,-7.092L49.081,0L47.535,0ZM56.239,0.166C55.379,0.166 54.631,-0.012 53.994,-0.366C53.357,-0.721 52.863,-1.22 52.512,-1.865C52.161,-2.51 51.986,-3.27 51.986,-4.145C51.986,-5.02 52.159,-5.779 52.506,-6.424C52.853,-7.068 53.347,-7.567 53.988,-7.92C54.629,-8.274 55.38,-8.451 56.241,-8.451C57.118,-8.451 57.871,-8.276 58.502,-7.926C59.133,-7.576 59.622,-7.079 59.967,-6.435C60.313,-5.79 60.486,-5.026 60.486,-4.142C60.486,-3.268 60.313,-2.506 59.967,-1.857C59.622,-1.208 59.131,-0.709 58.495,-0.359C57.86,-0.009 57.108,0.166 56.239,0.166ZM56.239,-1.182C57.095,-1.182 57.759,-1.443 58.231,-1.965C58.703,-2.487 58.939,-3.213 58.939,-4.144C58.939,-5.084 58.703,-5.812 58.231,-6.328C57.759,-6.845 57.095,-7.103 56.239,-7.103C55.388,-7.103 54.724,-6.843 54.247,-6.323C53.771,-5.803 53.532,-5.077 53.532,-4.145C53.532,-3.214 53.771,-2.487 54.247,-1.965C54.724,-1.443 55.388,-1.182 56.239,-1.182ZM62.727,0L62.727,-6.683L61.927,-6.683L61.927,-8.285L63.584,-8.285L63.584,-6.738L64.163,-6.738C64.397,-7.249 64.755,-7.645 65.238,-7.927C65.72,-8.21 66.285,-8.351 66.933,-8.351L67.616,-8.351L67.616,-7.026L66.856,-7.026C66.028,-7.026 65.388,-6.782 64.938,-6.294C64.488,-5.806 64.263,-5.148 64.263,-4.319L64.263,0L62.727,0ZM72.185,3.48C71.038,3.48 70.105,3.241 69.386,2.763C68.667,2.285 68.241,1.624 68.109,0.779L69.749,0.779C69.998,1.71 70.803,2.176 72.166,2.176C73.029,2.176 73.692,1.973 74.153,1.566C74.614,1.159 74.845,0.575 74.845,-0.185L74.845,-1.519L74.776,-1.519C74.555,-1.035 74.203,-0.661 73.722,-0.396C73.24,-0.132 72.675,0 72.025,0C71.237,0 70.553,-0.173 69.974,-0.518C69.395,-0.863 68.949,-1.351 68.635,-1.983C68.321,-2.614 68.164,-3.362 68.164,-4.225C68.164,-5.521 68.515,-6.55 69.218,-7.31C69.92,-8.071 70.876,-8.451 72.086,-8.451C72.756,-8.451 73.329,-8.328 73.805,-8.082C74.281,-7.836 74.659,-7.48 74.938,-7.015L75.518,-7.015L75.518,-8.285L77.175,-8.285L77.175,-6.683L76.374,-6.683L76.374,-0.108C76.374,1.023 76.009,1.903 75.278,2.534C74.547,3.164 73.516,3.48 72.185,3.48ZM72.395,-1.348C73.126,-1.348 73.714,-1.56 74.16,-1.986C74.605,-2.411 74.828,-2.975 74.828,-3.679L74.828,-4.778C74.828,-5.479 74.605,-6.042 74.158,-6.467C73.712,-6.891 73.124,-7.103 72.395,-7.103C71.557,-7.103 70.9,-6.85 70.424,-6.345C69.948,-5.839 69.71,-5.132 69.71,-4.223C69.71,-3.313 69.948,-2.607 70.424,-2.103C70.9,-1.599 71.557,-1.348 72.395,-1.348ZM82.692,0.166C81.832,0.166 81.085,-0.012 80.45,-0.366C79.814,-0.72 79.324,-1.224 78.979,-1.877C78.634,-2.529 78.461,-3.294 78.461,-4.17C78.461,-5.047 78.633,-5.805 78.976,-6.444C79.32,-7.084 79.804,-7.579 80.429,-7.927C81.054,-8.276 81.787,-8.451 82.629,-8.451C83.431,-8.451 84.124,-8.29 84.708,-7.969C85.292,-7.648 85.744,-7.192 86.065,-6.603C86.387,-6.014 86.547,-5.315 86.547,-4.507L86.547,-3.88L79.944,-3.88C79.994,-3.015 80.261,-2.341 80.745,-1.86C81.229,-1.379 81.874,-1.138 82.678,-1.138C83.247,-1.138 83.725,-1.255 84.11,-1.49C84.496,-1.725 84.762,-2.069 84.91,-2.521L86.478,-2.521C86.274,-1.671 85.839,-1.01 85.175,-0.54C84.51,-0.07 83.683,0.166 82.692,0.166ZM80.008,-5.007L85.056,-5.007C84.988,-5.696 84.74,-6.228 84.312,-6.605C83.884,-6.981 83.32,-7.169 82.62,-7.169C81.922,-7.169 81.344,-6.981 80.886,-6.603C80.427,-6.226 80.135,-5.694 80.008,-5.007Z" style="fill:white;"/>
                </g>
                <g transform="matrix(3.981299,0,0,4.758415,3250.019202,-5619.820579)">
                    <path d="M672.648,1189.655C672.649,1184.916 678.052,1182.21 681.847,1185.044L700.993,1199.346C702.448,1200.432 703.304,1202.141 703.304,1203.956L703.304,1207.69C702.505,1207.274 701.687,1206.889 700.852,1206.538C697.569,1205.156 694.018,1204.287 690.298,1204.03L690.298,1270.305C694.965,1269.983 699.366,1268.697 703.304,1266.645L703.304,1276.384C703.304,1279.563 700.728,1282.139 697.549,1282.139L684.543,1282.139L678.403,1282.139C675.224,1282.139 672.648,1279.563 672.648,1276.384L672.648,1189.655ZM664.808,1260.972L664.808,1276.384C664.808,1279.563 662.231,1282.139 659.052,1282.139L639.906,1282.139C636.727,1282.139 634.151,1279.563 634.151,1276.384L634.151,1189.655C634.151,1184.917 639.555,1182.21 643.35,1185.044L662.497,1199.346C663.951,1200.432 664.808,1202.141 664.808,1203.956L664.808,1213.363C658.609,1219.398 654.758,1227.833 654.758,1237.167C654.758,1246.502 658.609,1254.937 664.808,1260.972ZM711.144,1213.363L711.144,1203.956C711.144,1202.141 712,1200.432 713.455,1199.346L732.601,1185.044C736.397,1182.21 741.801,1184.917 741.801,1189.655L741.801,1276.384C741.801,1279.563 739.225,1282.139 736.046,1282.139L716.9,1282.139C713.721,1282.139 711.144,1279.563 711.144,1276.384L711.144,1260.972C717.343,1254.937 721.193,1246.502 721.193,1237.167C721.193,1227.833 717.343,1219.398 711.144,1213.363Z" style="fill:rgb(183,153,235);"/>
                </g>
            </g>
        </g>
    </g>
</svg>
