<?xml version="1.0" encoding="UTF-8" standalone="no"?>
<!DOCTYPE svg PUBLIC "-//W3C//DTD SVG 1.1//EN" "http://www.w3.org/Graphics/SVG/1.1/DTD/svg11.dtd">
<svg width="100%" height="100%" viewBox="0 0 432 394" version="1.1" xmlns="http://www.w3.org/2000/svg" xmlns:xlink="http://www.w3.org/1999/xlink" xml:space="preserve" xmlns:serif="http://www.serif.com/" style="fill-rule:evenodd;clip-rule:evenodd;stroke-linejoin:round;stroke-miterlimit:2;">
    <g transform="matrix(1,0,0,1,-1278,0)">
        <g id="symbol-black-light" transform="matrix(1.00551,0,0,0.916883,-2782.318968,654.868154)">
            <rect x="4038.763" y="-714.233" width="428.74" height="428.738" style="fill:none;"/>
            <g transform="matrix(7.893014,0,0,8.645842,4291.260056,-721.560603)">
                <path d="M-12.565,3.757C-12.564,1.366 -9.838,0 -7.923,1.43L1.738,8.647C2.472,9.195 2.904,10.057 2.904,10.973L2.904,12.857C2.501,12.647 2.088,12.453 1.666,12.276C0.01,11.578 -1.782,11.14 -3.659,11.01L-3.659,44.452C-1.304,44.289 0.917,43.64 2.904,42.605L2.904,47.519C2.904,49.123 1.604,50.423 0,50.423L-6.563,50.423L-9.661,50.423C-11.265,50.423 -12.565,49.123 -12.565,47.519L-12.565,3.757ZM-16.521,39.742L-16.521,47.519C-16.521,49.123 -17.821,50.423 -19.425,50.423L-29.086,50.423C-30.69,50.423 -31.99,49.123 -31.99,47.519L-31.99,3.757C-31.99,1.366 -29.263,0 -27.348,1.43L-17.687,8.647C-16.953,9.195 -16.521,10.057 -16.521,10.973L-16.521,15.72C-19.649,18.765 -21.592,23.021 -21.592,27.731C-21.592,32.441 -19.649,36.698 -16.521,39.742ZM6.86,15.72L6.86,10.973C6.86,10.057 7.292,9.195 8.026,8.647L17.687,1.43C19.602,0 22.329,1.366 22.329,3.757L22.329,47.519C22.329,49.123 21.029,50.423 19.425,50.423L9.764,50.423C8.16,50.423 6.86,49.123 6.86,47.519L6.86,39.742C9.988,36.698 11.931,32.441 11.931,27.731C11.931,23.021 9.988,18.765 6.86,15.72Z" style="fill:rgb(2,6,23);"/>
            </g>
        </g>
    </g>
</svg>
